<svg version="1.1" id="Layer_1" xmlns="http://www.w3.org/2000/svg" xmlns:xlink="http://www.w3.org/1999/xlink" x="0px" y="0px"
	 width="100%" viewBox="0 0 512 512" enable-background="new 0 0 512 512" xml:space="preserve">
<path fill="#000000" opacity="1.000000" stroke="none" 
	d="
M1.000000,192.000000 
	C1.000000,128.000000 1.000000,64.500000 1.000000,1.000000 
	C171.666672,1.000000 342.333344,1.000000 513.000000,1.000000 
	C513.000000,171.666672 513.000000,342.333344 513.000000,513.000000 
	C342.333344,513.000000 171.666672,513.000000 1.000000,513.000000 
	C1.000000,406.166656 1.000000,299.333344 1.000000,192.000000 
M93.432838,100.866394 
	C80.577469,105.979393 69.557121,113.735451 60.428276,124.104340 
	C46.738811,139.653351 38.647305,157.588242 38.047131,178.504257 
	C37.793911,187.328949 37.903713,196.168686 38.056622,204.998001 
	C38.113613,208.288757 37.538879,210.647598 34.113300,212.107346 
	C31.920626,213.041718 29.748762,214.713028 28.308989,216.615158 
	C18.526293,229.539459 22.691195,247.980835 36.842361,256.066010 
	C38.324764,256.912964 39.625259,259.132141 39.883080,260.880798 
	C40.846508,267.415222 40.838753,274.117279 42.106049,280.577820 
	C45.790085,299.358612 54.915806,315.291504 68.985802,328.215851 
	C73.907394,332.736694 81.749229,335.440125 84.274399,340.837128 
	C86.967163,346.592285 84.948166,354.552063 84.985970,361.549347 
	C84.986870,361.715973 84.960251,361.886963 84.988426,362.048615 
	C85.482704,364.884552 83.923042,366.223938 81.522095,367.231628 
	C67.508888,373.113068 53.607822,379.269592 39.514168,384.949310 
	C24.069292,391.173553 11.013226,409.933868 11.006468,426.646454 
	C10.999461,443.977081 11.004137,461.307678 11.005241,478.638306 
	C11.005836,487.953430 12.022248,488.993195 21.222187,488.993591 
	C94.044098,488.996674 166.866013,488.995392 239.687927,488.994659 
	C240.854370,488.994629 242.024887,489.045929 243.186554,488.968719 
	C248.045395,488.645844 249.974457,486.644623 249.983200,481.766602 
	C250.011230,466.102448 249.991791,450.438232 249.996429,434.774017 
	C249.998428,428.005280 250.004837,427.996704 256.744141,427.996490 
	C330.565887,427.994293 404.387634,427.999603 478.209381,427.990631 
	C491.882477,427.988953 502.986664,417.033905 502.988068,403.507294 
	C502.999725,291.858124 502.999451,180.208984 502.988922,68.559822 
	C502.987640,54.934277 491.991699,44.035950 478.286346,44.008423 
	C469.787720,43.991352 461.288513,44.061714 452.790466,43.990223 
	C442.712708,43.905441 444.099060,45.261295 444.009491,35.273808 
	C443.930206,26.427126 442.540497,25.005941 433.516937,25.005623 
	C377.192444,25.003643 320.867950,25.016888 264.543457,24.994734 
	C252.643387,24.990053 249.165192,23.402906 250.050751,39.208797 
	C250.258118,42.910198 249.032776,44.135429 245.269409,44.079315 
	C232.107758,43.883057 218.941330,43.991043 205.776749,44.008701 
	C191.809525,44.027435 181.022491,54.912647 181.007767,68.994446 
	C180.994705,81.492477 181.016037,93.990555 180.990570,106.488541 
	C180.987396,108.042259 180.790161,109.595589 180.638535,111.790932 
	C178.306595,110.395592 176.599945,109.454674 174.974777,108.389458 
	C159.959625,98.547775 143.171967,94.245918 125.534157,94.226387 
	C114.855125,94.214561 104.160385,96.267273 93.432838,100.866394 
z"/>
<path fill="#294369" opacity="1.000000" stroke="none" 
	d="
M93.771698,100.676773 
	C104.160385,96.267273 114.855125,94.214561 125.534157,94.226387 
	C143.171967,94.245918 159.959625,98.547775 174.974777,108.389458 
	C176.599945,109.454674 178.306595,110.395592 180.638535,111.790932 
	C180.790161,109.595589 180.987396,108.042259 180.990570,106.488541 
	C181.016037,93.990555 180.994705,81.492477 181.007767,68.994446 
	C181.022491,54.912647 191.809525,44.027435 205.776749,44.008701 
	C218.941330,43.991043 232.107758,43.883057 245.269409,44.079315 
	C249.032776,44.135429 250.258118,42.910198 250.050751,39.208797 
	C249.165192,23.402906 252.643387,24.990053 264.543457,24.994734 
	C320.867950,25.016888 377.192444,25.003643 433.516937,25.005623 
	C442.540497,25.005941 443.930206,26.427126 444.009491,35.273808 
	C444.099060,45.261295 442.712708,43.905441 452.790466,43.990223 
	C461.288513,44.061714 469.787720,43.991352 478.286346,44.008423 
	C491.991699,44.035950 502.987640,54.934277 502.988922,68.559822 
	C502.999451,180.208984 502.999725,291.858124 502.988068,403.507294 
	C502.986664,417.033905 491.882477,427.988953 478.209381,427.990631 
	C404.387634,427.999603 330.565887,427.994293 256.744141,427.996490 
	C250.004837,427.996704 249.998428,428.005280 249.996429,434.774017 
	C249.991791,450.438232 250.011230,466.102448 249.983200,481.766602 
	C249.974457,486.644623 248.045395,488.645844 243.186554,488.968719 
	C242.024887,489.045929 240.854370,488.994629 239.687927,488.994659 
	C166.866013,488.995392 94.044098,488.996674 21.222187,488.993591 
	C12.022248,488.993195 11.005836,487.953430 11.005241,478.638306 
	C11.004137,461.307678 10.999461,443.977081 11.006468,426.646454 
	C11.013226,409.933868 24.069292,391.173553 39.514168,384.949310 
	C53.607822,379.269592 67.508888,373.113068 81.522095,367.231628 
	C83.923042,366.223938 85.482704,364.884552 84.988426,362.048615 
	C84.960251,361.886963 84.986870,361.715973 84.985970,361.549347 
	C84.948166,354.552063 86.967163,346.592285 84.274399,340.837128 
	C81.749229,335.440125 73.907394,332.736694 68.985802,328.215851 
	C54.915806,315.291504 45.790085,299.358612 42.106049,280.577820 
	C40.838753,274.117279 40.846508,267.415222 39.883080,260.880798 
	C39.625259,259.132141 38.324764,256.912964 36.842361,256.066010 
	C22.691195,247.980835 18.526293,229.539459 28.308989,216.615158 
	C29.748762,214.713028 31.920626,213.041718 34.113300,212.107346 
	C37.538879,210.647598 38.113613,208.288757 38.056622,204.998001 
	C37.903713,196.168686 37.793911,187.328949 38.047131,178.504257 
	C38.647305,157.588242 46.738811,139.653351 60.428276,124.104340 
	C69.557121,113.735451 80.577469,105.979393 93.771698,100.676773 
M112.832047,369.003235 
	C128.679871,372.607330 144.204010,371.171783 159.405258,365.777924 
	C160.793839,365.285187 162.658798,363.583984 162.727997,362.355255 
	C163.070663,356.270905 162.884125,350.156769 162.884125,344.006500 
	C161.940308,343.954346 161.393204,343.763763 160.984467,343.924683 
	C145.131638,350.165192 128.764893,351.441376 111.309013,348.754730 
	C107.006409,347.629791 102.703804,346.504852 97.968407,345.266754 
	C97.968407,347.736786 97.968765,349.878876 97.968353,352.020966 
	C97.965698,366.014374 97.965637,366.014374 112.832047,369.003235 
M108.006943,110.005112 
	C108.006943,110.005112 108.001831,109.955498 107.198830,109.955353 
	C105.738777,110.261566 104.224152,110.410957 102.826782,110.897285 
	C77.804054,119.605995 61.316730,136.726959 53.303608,161.873306 
	C48.135925,178.090256 50.331696,194.902771 50.182709,211.497406 
	C50.170269,212.882477 51.871025,214.282928 52.775818,215.676224 
	C54.372936,214.013412 54.839401,212.953644 54.899685,211.871262 
	C55.315727,204.401215 55.780773,196.929611 55.957775,189.452087 
	C56.072556,184.603134 57.708714,181.373718 63.922207,180.994492 
	C80.162476,179.969635 96.524559,179.850739 112.611755,177.687515 
	C132.131073,175.062805 151.075317,169.668259 168.222565,159.372116 
	C171.503448,157.402100 174.569717,155.066483 177.893311,153.178177 
	C180.859329,151.492981 183.991440,151.128754 186.416901,154.233261 
	C188.884506,157.391708 187.857635,160.127777 185.041534,162.467331 
	C183.764526,163.528259 182.493881,164.612869 181.121567,165.540634 
	C160.673386,179.364700 137.599548,185.952759 113.604439,189.996628 
	C112.116318,190.247421 110.644897,190.597397 107.746040,191.192825 
	C110.750465,193.022858 112.386597,194.084106 114.081299,195.041672 
	C129.840927,203.946472 146.934097,208.968369 164.785294,210.662537 
	C176.460861,211.770615 188.312881,211.020798 200.085892,211.099701 
	C203.127594,211.120071 204.043808,209.417572 204.007660,206.607315 
	C203.919830,199.779190 204.109619,192.946472 203.966766,186.120224 
	C203.264282,152.549622 188.323746,127.809372 157.702896,113.471352 
	C142.516739,106.360535 126.403786,104.869995 109.404900,109.123924 
	C108.924118,109.410057 108.443344,109.696190 108.006943,110.005112 
M109.576912,335.604187 
	C139.381668,342.368683 164.652588,334.335632 184.943192,311.667633 
	C198.860855,296.119293 204.133209,277.317322 203.051880,256.678131 
	C202.758972,251.087509 204.347183,247.730453 210.267578,246.088516 
	C217.722046,244.021103 221.515411,236.654114 220.003937,229.167648 
	C219.029602,224.341690 215.320038,221.408981 210.805237,222.137329 
	C195.394333,224.623474 179.933884,224.643509 164.476135,222.911865 
	C137.831482,219.927048 113.209801,211.637527 91.976891,194.677322 
	C90.983696,193.883987 89.705338,192.976013 88.539803,192.947830 
	C81.764915,192.784012 74.984039,192.867676 67.955223,192.867676 
	C67.347176,201.835419 66.836105,209.799744 66.261047,217.759460 
	C65.257431,231.651169 62.863800,233.151108 49.541813,227.517365 
	C47.929035,226.652695 46.281422,225.846619 44.710106,224.912216 
	C40.277943,222.276596 37.620384,223.291321 36.126484,228.249893 
	C34.011169,235.271057 37.774078,243.028381 44.711926,245.948914 
	C52.826351,249.364777 53.043213,249.371109 52.783226,258.257935 
	C52.344421,273.257080 55.118820,287.462738 62.886662,300.399872 
	C73.537796,318.139008 88.473602,330.369659 109.576912,335.604187 
M47.935719,476.209686 
	C51.934875,476.233734 55.934032,476.278351 59.933189,476.278687 
	C116.928658,476.283203 173.924118,476.282715 230.919586,476.280426 
	C237.850708,476.280151 237.854675,476.272095 237.856171,469.146973 
	C237.858902,456.148010 238.137726,443.141388 237.783478,430.152069 
	C237.359695,414.612701 229.964447,403.003448 215.871643,396.485382 
	C200.914856,389.567657 185.608719,383.399597 170.385498,377.071686 
	C168.730530,376.383789 166.398102,376.205322 164.745285,376.802277 
	C143.295151,384.549225 121.739822,384.904327 99.302681,377.892822 
	C96.316307,377.597321 92.887039,376.196472 90.415825,377.186676 
	C74.984985,383.369568 59.603920,389.732819 44.528770,396.730865 
	C30.631363,403.182251 23.375324,414.640106 23.060143,430.013336 
	C22.780424,443.656708 22.993177,457.310272 23.012348,470.959320 
	C23.014614,472.572052 23.167273,474.184601 23.263407,476.053711 
	C31.450804,476.053711 39.230473,476.053711 47.935719,476.209686 
M490.999756,139.500000 
	C490.999390,116.833916 491.029541,94.167778 490.982452,71.501785 
	C490.965393,63.302353 486.636780,56.865082 479.371460,56.442719 
	C467.626312,55.759911 455.812439,56.259048 443.645111,56.259048 
	C443.645111,58.554390 443.653595,60.527946 443.643616,62.501408 
	C443.602936,70.552780 442.127930,71.998268 433.926117,71.999184 
	C407.593079,72.002121 381.260010,72.000313 354.926971,72.000275 
	C322.760651,72.000229 290.594330,72.012321 258.428009,71.988960 
	C252.522217,71.984665 250.610504,70.110298 250.439468,64.313210 
	C250.362366,61.699806 250.426422,59.082249 250.426422,56.036617 
	C236.081772,56.036617 222.279831,55.985329 208.478516,56.053955 
	C198.650787,56.102825 193.074265,61.734715 193.036514,71.657249 
	C192.974350,87.990173 192.923813,104.324715 193.131119,120.655243 
	C193.159363,122.879639 194.220428,125.464920 195.620605,127.237549 
	C205.087082,139.222260 212.022766,152.461273 214.090805,167.627502 
	C215.478867,177.807053 215.635345,188.192383 215.759537,198.492676 
	C215.838181,205.017960 216.117783,209.670273 223.159058,213.951447 
	C237.604263,222.734283 234.820374,246.243683 219.013535,255.313675 
	C215.972229,257.058777 214.985184,258.843964 215.027634,262.210876 
	C215.294052,283.345215 208.483627,302.037811 195.288116,318.514069 
	C194.059052,320.048706 193.138748,322.316010 193.116608,324.255005 
	C192.941528,339.586182 193.089813,354.920898 192.951355,370.252808 
	C192.927734,372.866272 193.867828,374.038757 196.155777,374.976013 
	C204.002808,378.190460 211.774750,381.588501 219.570679,384.927368 
	C231.955917,390.231812 240.842865,399.141418 245.886810,411.557465 
	C247.360931,415.186066 249.171860,416.009338 252.815720,416.003876 
	C326.314789,415.893616 399.814026,415.923309 473.313232,415.919403 
	C486.076019,415.918732 490.998383,410.925568 490.998688,397.997223 
	C491.000793,312.164825 490.999756,226.332413 490.999756,139.500000 
M262.960022,50.461864 
	C263.008270,60.788788 262.031464,59.991421 272.279297,59.993462 
	C317.932739,60.002552 363.586212,59.997917 409.239655,59.996796 
	C415.404510,59.996643 421.570129,59.928272 427.733856,60.009964 
	C430.658661,60.048733 432.054352,58.881962 431.969421,55.880085 
	C431.879883,52.717056 431.964935,49.549255 431.963135,46.383545 
	C431.958435,37.983311 431.956177,37.974983 423.769073,37.974533 
	C373.950165,37.971779 324.131226,37.942940 274.312378,37.993649 
	C261.332275,38.006859 263.117676,36.389034 262.960022,50.461864 
M175.303375,364.494232 
	C176.898972,365.512604 178.494568,366.530975 180.654755,367.909698 
	C180.654755,356.016449 180.654755,345.033203 180.654755,333.930939 
	C176.035751,335.398560 174.680954,338.284332 174.908905,342.700470 
	C175.269043,349.677124 175.066895,356.682831 175.303375,364.494232 
z"/>
<path fill="#E4F4FC" opacity="1.000000" stroke="none" 
	d="
M490.999756,140.000000 
	C490.999756,226.332413 491.000793,312.164825 490.998688,397.997223 
	C490.998383,410.925568 486.076019,415.918732 473.313232,415.919403 
	C399.814026,415.923309 326.314789,415.893616 252.815720,416.003876 
	C249.171860,416.009338 247.360931,415.186066 245.886810,411.557465 
	C240.842865,399.141418 231.955917,390.231812 219.570679,384.927368 
	C211.774750,381.588501 204.002808,378.190460 196.155777,374.976013 
	C193.867828,374.038757 192.927734,372.866272 192.951355,370.252808 
	C193.089813,354.920898 192.941528,339.586182 193.116608,324.255005 
	C193.138748,322.316010 194.059052,320.048706 195.288116,318.514069 
	C208.483627,302.037811 215.294052,283.345215 215.027634,262.210876 
	C214.985184,258.843964 215.972229,257.058777 219.013535,255.313675 
	C234.820374,246.243683 237.604263,222.734283 223.159058,213.951447 
	C216.117783,209.670273 215.838181,205.017960 215.759537,198.492676 
	C215.635345,188.192383 215.478867,177.807053 214.090805,167.627502 
	C212.022766,152.461273 205.087082,139.222260 195.620605,127.237549 
	C194.220428,125.464920 193.159363,122.879639 193.131119,120.655243 
	C192.923813,104.324715 192.974350,87.990173 193.036514,71.657249 
	C193.074265,61.734715 198.650787,56.102825 208.478516,56.053955 
	C222.279831,55.985329 236.081772,56.036617 250.426422,56.036617 
	C250.426422,59.082249 250.362366,61.699806 250.439468,64.313210 
	C250.610504,70.110298 252.522217,71.984665 258.428009,71.988960 
	C290.594330,72.012321 322.760651,72.000229 354.926971,72.000275 
	C381.260010,72.000313 407.593079,72.002121 433.926117,71.999184 
	C442.127930,71.998268 443.602936,70.552780 443.643616,62.501408 
	C443.653595,60.527946 443.645111,58.554390 443.645111,56.259048 
	C455.812439,56.259048 467.626312,55.759911 479.371460,56.442719 
	C486.636780,56.865082 490.965393,63.302353 490.982452,71.501785 
	C491.029541,94.167778 490.999390,116.833916 490.999756,140.000000 
M311.460938,110.933220 
	C300.750946,107.123039 289.773621,105.745720 278.548523,107.842010 
	C251.085571,112.970734 232.627411,128.943283 225.362320,155.770462 
	C218.087463,182.633713 225.681732,206.225372 247.308289,223.854034 
	C269.091309,241.610199 293.807678,244.209549 318.820221,231.474472 
	C343.274414,219.023682 355.710724,197.845520 354.623383,170.494507 
	C353.493317,142.069183 338.483765,122.269989 311.460938,110.933220 
M342.538544,299.690247 
	C350.865509,299.690247 359.192505,299.691040 367.519470,299.690094 
	C381.841858,299.688416 396.164612,299.746307 410.486359,299.649200 
	C415.239960,299.616974 418.210541,297.049347 417.895844,293.406006 
	C417.550446,289.407288 415.032349,287.646576 411.116913,287.647644 
	C385.136810,287.654816 359.156677,287.649933 333.176575,287.649841 
	C329.228699,287.649841 326.656891,289.494019 326.605652,293.531891 
	C326.554047,297.597656 329.247223,299.439758 333.064880,299.634491 
	C335.889099,299.778503 338.725616,299.680450 342.538544,299.690247 
M275.499756,359.599182 
	C286.824738,359.598633 298.149902,359.638824 309.474579,359.579712 
	C314.827118,359.551788 317.532562,357.398834 317.292084,353.382141 
	C317.003845,348.568878 313.683014,347.531372 309.608917,347.533569 
	C289.124054,347.544617 268.639130,347.508881 248.154388,347.558838 
	C242.957870,347.571503 239.854706,349.970490 240.228928,353.735626 
	C240.684418,358.318176 243.860748,359.636810 248.019348,359.612823 
	C256.845856,359.561951 265.672882,359.598419 275.499756,359.599182 
M434.489777,133.691040 
	C438.809662,133.675064 443.136932,133.809341 447.447113,133.596939 
	C451.078583,133.417969 453.497803,131.335587 453.485016,127.617180 
	C453.472443,123.949821 451.256531,121.714706 447.481018,121.699265 
	C433.191895,121.640800 418.901855,121.631050 404.613220,121.739723 
	C401.148560,121.766068 399.032654,123.776375 398.872192,127.344444 
	C398.711273,130.923279 400.729614,132.892059 404.097351,133.511078 
	C405.389069,133.748505 406.744110,133.681580 408.070404,133.683655 
	C416.544678,133.696930 425.018951,133.690781 434.489777,133.691040 
M405.476227,171.638748 
	C395.515839,171.647903 385.555328,171.626831 375.595184,171.681747 
	C371.836121,171.702469 369.515289,173.806686 369.408783,177.447479 
	C369.301392,181.118179 371.660004,183.525055 375.285736,183.563751 
	C389.558746,183.716171 403.836273,183.723068 418.108154,183.514069 
	C421.707153,183.461349 424.004120,180.971024 423.795441,177.262604 
	C423.604614,173.871063 421.438263,171.822723 417.916382,171.714020 
	C414.101715,171.596298 410.281616,171.656311 405.476227,171.638748 
M402.177582,222.966995 
	C398.569275,224.190384 397.182739,226.801392 398.087402,230.361023 
	C398.969757,233.832977 401.799316,234.763931 405.047943,234.764542 
	C418.851257,234.767151 432.654602,234.781845 446.457855,234.754700 
	C450.494629,234.746765 453.455780,232.960449 453.457886,228.686707 
	C453.459991,224.402206 450.575226,222.708450 446.458923,222.727798 
	C431.991730,222.795837 417.524323,222.807877 402.177582,222.966995 
M452.435608,357.006165 
	C454.543335,351.024384 452.650360,347.703461 446.632477,347.603790 
	C435.818085,347.424622 424.998474,347.525909 414.181488,347.587952 
	C412.886475,347.595367 411.067017,347.651031 410.410248,348.445007 
	C409.033936,350.108765 407.091217,352.627502 407.542725,354.156982 
	C408.157013,356.237640 410.739410,359.160706 412.569641,359.228119 
	C424.529663,359.668457 436.515106,359.484802 448.490326,359.342712 
	C449.655212,359.328918 450.806976,358.211639 452.435608,357.006165 
M275.236694,287.640106 
	C265.946503,287.641602 256.655762,287.583313 247.366348,287.669708 
	C242.691803,287.713165 239.736496,290.343658 240.241638,294.009888 
	C240.825760,298.249207 243.813492,299.677734 247.731323,299.681885 
	C257.187408,299.691864 266.643494,299.694824 276.099579,299.688293 
	C283.251709,299.683350 286.093903,297.953949 286.121063,293.622498 
	C286.148163,289.300140 283.441315,287.674316 275.236694,287.640106 
M350.511047,359.598022 
	C356.987762,359.591614 363.465576,359.653931 369.940826,359.553040 
	C373.808929,359.492798 376.391388,357.551758 376.385345,353.514648 
	C376.379730,349.774261 374.050659,347.662231 370.345795,347.630310 
	C359.553253,347.537415 348.758209,347.520691 337.966583,347.661530 
	C334.315094,347.709137 331.987915,349.815643 332.010284,353.611206 
	C332.032715,357.422852 334.453674,359.329803 338.061523,359.515625 
	C341.871521,359.711792 345.698212,359.584137 350.511047,359.598022 
M431.474213,299.377869 
	C436.949280,299.442871 442.435638,299.746979 447.895447,299.488922 
	C451.539154,299.316711 453.706879,296.874329 453.456635,293.147095 
	C453.224854,289.694397 451.034027,287.748383 447.509888,287.685974 
	C442.856781,287.603516 438.137024,287.199219 433.573486,287.840759 
	C431.238556,288.169006 428.238708,289.995605 427.223206,291.998657 
	C425.758484,294.887695 427.306122,297.802643 431.474213,299.377869 
M357.420380,226.982071 
	C356.573090,230.943222 358.255859,233.967789 362.026001,234.377838 
	C367.583984,234.982300 373.310211,235.014008 378.844055,234.322922 
	C380.708710,234.090042 383.391602,230.999893 383.534180,229.056641 
	C383.674316,227.147491 381.242157,223.476608 379.628387,223.291977 
	C373.587952,222.600937 367.410919,222.845261 361.308319,223.171967 
	C360.071960,223.238159 358.936584,225.189499 357.420380,226.982071 
M300.096680,294.303314 
	C302.441711,299.578888 310.578583,301.737854 315.081696,298.279297 
	C317.930664,296.091187 318.076019,291.456909 315.369873,289.090118 
	C310.889832,285.171783 301.832733,287.794922 300.096680,294.303314 
M396.019562,349.455170 
	C392.548187,348.941833 388.999481,347.727509 385.625793,348.099609 
	C381.755585,348.526520 380.259094,353.455963 382.391541,356.789642 
	C384.160583,359.555237 390.703674,360.870056 394.285706,358.864899 
	C397.950745,356.813232 398.695129,353.715637 396.019562,349.455170 
M440.266479,172.758194 
	C439.646729,175.277237 437.939484,178.238373 438.730408,180.183914 
	C439.440704,181.931152 442.923187,183.505081 445.133423,183.441498 
	C447.748505,183.366241 451.089294,182.109970 452.714478,180.183609 
	C455.193909,177.244797 452.741547,172.456146 448.777588,171.925888 
	C446.217773,171.583466 443.536591,172.148132 440.266479,172.758194 
M371.514069,132.147797 
	C374.533264,132.517059 377.687317,133.615051 380.540436,133.086990 
	C384.964172,132.268204 386.262665,126.998306 383.336792,123.675926 
	C381.381989,121.456245 374.831360,120.655411 372.171814,122.591949 
	C368.758606,125.077278 368.425690,128.219833 371.514069,132.147797 
z"/>
<path fill="#50A6EA" opacity="1.000000" stroke="none" 
	d="
M100.008575,378.175354 
	C121.739822,384.904327 143.295151,384.549225 164.745285,376.802277 
	C166.398102,376.205322 168.730530,376.383789 170.385498,377.071686 
	C185.608719,383.399597 200.914856,389.567657 215.871643,396.485382 
	C229.964447,403.003448 237.359695,414.612701 237.783478,430.152069 
	C238.137726,443.141388 237.858902,456.148010 237.856171,469.146973 
	C237.854675,476.272095 237.850708,476.280151 230.919586,476.280426 
	C173.924118,476.282715 116.928658,476.283203 59.933189,476.278687 
	C55.934032,476.278351 51.934875,476.233734 47.471283,475.659119 
	C47.005753,459.610657 46.789829,444.108795 47.078278,428.616333 
	C47.274101,418.098663 51.205612,408.893250 58.388359,401.059418 
	C64.206009,394.714417 71.694321,391.285065 79.387375,387.971130 
	C86.371658,384.962494 93.143219,381.460052 100.008575,378.175354 
z"/>
<path fill="#FED8B7" opacity="1.000000" stroke="none" 
	d="
M50.001999,228.031357 
	C62.863800,233.151108 65.257431,231.651169 66.261047,217.759460 
	C66.836105,209.799744 67.347176,201.835419 67.955223,192.867676 
	C74.984039,192.867676 81.764915,192.784012 88.539803,192.947830 
	C89.705338,192.976013 90.983696,193.883987 91.976891,194.677322 
	C113.209801,211.637527 137.831482,219.927048 164.476135,222.911865 
	C179.933884,224.643509 195.394333,224.623474 210.805237,222.137329 
	C215.320038,221.408981 219.029602,224.341690 220.003937,229.167648 
	C221.515411,236.654114 217.722046,244.021103 210.267578,246.088516 
	C204.347183,247.730453 202.758972,251.087509 203.051880,256.678131 
	C204.133209,277.317322 198.860855,296.119293 184.943192,311.667633 
	C164.652588,334.335632 139.381668,342.368683 109.106003,335.082092 
	C107.431030,333.697021 106.252350,332.795837 105.018997,331.976959 
	C90.843094,322.564636 79.856323,310.492584 73.198875,294.623840 
	C68.278519,282.895630 66.433052,270.746918 66.844368,258.100891 
	C66.907524,256.159210 65.804504,252.888290 64.451675,252.394608 
	C52.819614,248.149750 49.088177,239.544479 50.001999,228.031357 
z"/>
<path fill="#4A5160" opacity="1.000000" stroke="none" 
	d="
M109.966385,109.026962 
	C126.403786,104.869995 142.516739,106.360535 157.702896,113.471352 
	C188.323746,127.809372 203.264282,152.549622 203.966766,186.120224 
	C204.109619,192.946472 203.919830,199.779190 204.007660,206.607315 
	C204.043808,209.417572 203.127594,211.120071 200.085892,211.099701 
	C188.312881,211.020798 176.460861,211.770615 164.785294,210.662537 
	C146.934097,208.968369 129.840927,203.946472 114.081299,195.041672 
	C112.386597,194.084106 110.750465,193.022858 107.746040,191.192825 
	C110.644897,190.597397 112.116318,190.247421 113.604439,189.996628 
	C137.599548,185.952759 160.673386,179.364700 181.121567,165.540634 
	C182.493881,164.612869 183.764526,163.528259 185.041534,162.467331 
	C187.857635,160.127777 188.884506,157.391708 186.416901,154.233261 
	C183.991440,151.128754 180.859329,151.492981 177.893311,153.178177 
	C174.569717,155.066483 171.503448,157.402100 168.222565,159.372116 
	C151.075317,169.668259 132.131073,175.062805 112.611755,177.687515 
	C96.524559,179.850739 80.162476,179.969635 63.467361,180.578522 
	C64.042908,175.620056 64.898598,171.029419 66.134888,166.543655 
	C70.721176,149.902725 77.895012,134.596924 90.878593,122.794373 
	C96.133926,118.017067 102.267754,114.206154 108.001831,109.955490 
	C108.001831,109.955498 108.006943,110.005112 108.263916,109.939377 
	C109.002716,109.591415 109.484550,109.309189 109.966385,109.026962 
z"/>
<path fill="#475673" opacity="1.000000" stroke="none" 
	d="
M262.959930,49.975227 
	C263.117676,36.389034 261.332275,38.006859 274.312378,37.993649 
	C324.131226,37.942940 373.950165,37.971779 423.769073,37.974533 
	C431.956177,37.974983 431.958435,37.983311 431.963135,46.383545 
	C431.964935,49.549255 431.879883,52.717056 431.969421,55.880085 
	C432.054352,58.881962 430.658661,60.048733 427.733856,60.009964 
	C421.570129,59.928272 415.404510,59.996643 409.239655,59.996796 
	C363.586212,59.997917 317.932739,60.002552 272.279297,59.993462 
	C262.031464,59.991421 263.008270,60.788788 262.959930,49.975227 
z"/>
<path fill="#71BBEE" opacity="1.000000" stroke="none" 
	d="
M99.655624,378.034088 
	C93.143219,381.460052 86.371658,384.962494 79.387375,387.971130 
	C71.694321,391.285065 64.206009,394.714417 58.388359,401.059418 
	C51.205612,408.893250 47.274101,418.098663 47.078278,428.616333 
	C46.789829,444.108795 47.005753,459.610657 47.008492,475.581116 
	C39.230473,476.053711 31.450804,476.053711 23.263407,476.053711 
	C23.167273,474.184601 23.014614,472.572052 23.012348,470.959320 
	C22.993177,457.310272 22.780424,443.656708 23.060143,430.013336 
	C23.375324,414.640106 30.631363,403.182251 44.528770,396.730865 
	C59.603920,389.732819 74.984985,383.369568 90.415825,377.186676 
	C92.887039,376.196472 96.316307,377.597321 99.655624,378.034088 
z"/>
<path fill="#E6BB9E" opacity="1.000000" stroke="none" 
	d="
M49.771904,227.774353 
	C49.088177,239.544479 52.819614,248.149750 64.451675,252.394608 
	C65.804504,252.888290 66.907524,256.159210 66.844368,258.100891 
	C66.433052,270.746918 68.278519,282.895630 73.198875,294.623840 
	C79.856323,310.492584 90.843094,322.564636 105.018997,331.976959 
	C106.252350,332.795837 107.431030,333.697021 108.794586,334.864136 
	C88.473602,330.369659 73.537796,318.139008 62.886662,300.399872 
	C55.118820,287.462738 52.344421,273.257080 52.783226,258.257935 
	C53.043213,249.371109 52.826351,249.364777 44.711926,245.948914 
	C37.774078,243.028381 34.011169,235.271057 36.126484,228.249893 
	C37.620384,223.291321 40.277943,222.276596 44.710106,224.912216 
	C46.281422,225.846619 47.929035,226.652695 49.771904,227.774353 
z"/>
<path fill="#575F6D" opacity="1.000000" stroke="none" 
	d="
M107.600327,109.955421 
	C102.267754,114.206154 96.133926,118.017067 90.878593,122.794373 
	C77.895012,134.596924 70.721176,149.902725 66.134888,166.543655 
	C64.898598,171.029419 64.042908,175.620056 62.997742,180.567673 
	C57.708714,181.373718 56.072556,184.603134 55.957775,189.452087 
	C55.780773,196.929611 55.315727,204.401215 54.899685,211.871262 
	C54.839401,212.953644 54.372936,214.013412 52.775818,215.676224 
	C51.871025,214.282928 50.170269,212.882477 50.182709,211.497406 
	C50.331696,194.902771 48.135925,178.090256 53.303608,161.873306 
	C61.316730,136.726959 77.804054,119.605995 102.826782,110.897285 
	C104.224152,110.410957 105.738777,110.261566 107.600327,109.955421 
z"/>
<path fill="#ECC396" opacity="1.000000" stroke="none" 
	d="
M112.011589,349.060944 
	C128.764893,351.441376 145.131638,350.165192 160.984467,343.924683 
	C161.393204,343.763763 161.940308,343.954346 162.884125,344.006500 
	C162.884125,350.156769 163.070663,356.270905 162.727997,362.355255 
	C162.658798,363.583984 160.793839,365.285187 159.405258,365.777924 
	C144.204010,371.171783 128.679871,372.607330 112.430618,368.431549 
	C112.023331,361.593567 112.017464,355.327240 112.011589,349.060944 
z"/>
<path fill="#D5AB82" opacity="1.000000" stroke="none" 
	d="
M111.660301,348.907837 
	C112.017464,355.327240 112.023331,361.593567 112.039474,368.313049 
	C97.965637,366.014374 97.965698,366.014374 97.968353,352.020966 
	C97.968765,349.878876 97.968407,347.736786 97.968407,345.266754 
	C102.703804,346.504852 107.006409,347.629791 111.660301,348.907837 
z"/>
<path fill="#000000" opacity="1.000000" stroke="none" 
	d="
M175.203064,364.085236 
	C175.066895,356.682831 175.269043,349.677124 174.908905,342.700470 
	C174.680954,338.284332 176.035751,335.398560 180.654755,333.930939 
	C180.654755,345.033203 180.654755,356.016449 180.654755,367.909698 
	C178.494568,366.530975 176.898972,365.512604 175.203064,364.085236 
z"/>
<path fill="#575F6D" opacity="1.000000" stroke="none" 
	d="
M109.685638,109.075439 
	C109.484550,109.309189 109.002716,109.591415 108.241730,109.927979 
	C108.443344,109.696190 108.924118,109.410057 109.685638,109.075439 
z"/>
<path fill="#2B456A" opacity="1.000000" stroke="none" 
	d="
M311.837463,111.046692 
	C338.483765,122.269989 353.493317,142.069183 354.623383,170.494507 
	C355.710724,197.845520 343.274414,219.023682 318.820221,231.474472 
	C293.807678,244.209549 269.091309,241.610199 247.308289,223.854034 
	C225.681732,206.225372 218.087463,182.633713 225.362320,155.770462 
	C232.627411,128.943283 251.085571,112.970734 278.548523,107.842010 
	C289.773621,105.745720 300.750946,107.123039 311.837463,111.046692 
M278.199432,225.586578 
	C278.781952,225.697800 279.364471,225.809036 280.764343,226.141663 
	C282.575836,226.391083 284.380463,226.778732 286.199829,226.868896 
	C308.418579,227.969879 328.849487,215.332153 338.168060,194.771835 
	C347.122864,175.014084 343.163757,151.081573 327.686371,135.515381 
	C314.565277,122.318962 298.674683,116.544716 279.160431,120.006668 
	C258.410034,124.120758 244.308762,136.304565 237.741699,156.191193 
	C231.086029,176.346146 235.537628,194.744797 250.039749,210.249924 
	C257.532806,218.261215 266.555389,224.133133 278.002014,225.029068 
	C278.002014,225.029068 277.939301,225.040863 278.199432,225.586578 
z"/>
<path fill="#2E486D" opacity="1.000000" stroke="none" 
	d="
M342.047607,299.690247 
	C338.725616,299.680450 335.889099,299.778503 333.064880,299.634491 
	C329.247223,299.439758 326.554047,297.597656 326.605652,293.531891 
	C326.656891,289.494019 329.228699,287.649841 333.176575,287.649841 
	C359.156677,287.649933 385.136810,287.654816 411.116913,287.647644 
	C415.032349,287.646576 417.550446,289.407288 417.895844,293.406006 
	C418.210541,297.049347 415.239960,299.616974 410.486359,299.649200 
	C396.164612,299.746307 381.841858,299.688416 367.519470,299.690094 
	C359.192505,299.691040 350.865509,299.690247 342.047607,299.690247 
z"/>
<path fill="#2F496E" opacity="1.000000" stroke="none" 
	d="
M274.999725,359.599152 
	C265.672882,359.598419 256.845856,359.561951 248.019348,359.612823 
	C243.860748,359.636810 240.684418,358.318176 240.228928,353.735626 
	C239.854706,349.970490 242.957870,347.571503 248.154388,347.558838 
	C268.639130,347.508881 289.124054,347.544617 309.608917,347.533569 
	C313.683014,347.531372 317.003845,348.568878 317.292084,353.382141 
	C317.532562,357.398834 314.827118,359.551788 309.474579,359.579712 
	C298.149902,359.638824 286.824738,359.598633 274.999725,359.599152 
z"/>
<path fill="#2F486D" opacity="1.000000" stroke="none" 
	d="
M433.991516,133.691025 
	C425.018951,133.690781 416.544678,133.696930 408.070404,133.683655 
	C406.744110,133.681580 405.389069,133.748505 404.097351,133.511078 
	C400.729614,132.892059 398.711273,130.923279 398.872192,127.344444 
	C399.032654,123.776375 401.148560,121.766068 404.613220,121.739723 
	C418.901855,121.631050 433.191895,121.640800 447.481018,121.699265 
	C451.256531,121.714706 453.472443,123.949821 453.485016,127.617180 
	C453.497803,131.335587 451.078583,133.417969 447.447113,133.596939 
	C443.136932,133.809341 438.809662,133.675064 433.991516,133.691025 
z"/>
<path fill="#2F486D" opacity="1.000000" stroke="none" 
	d="
M405.970032,171.638779 
	C410.281616,171.656311 414.101715,171.596298 417.916382,171.714020 
	C421.438263,171.822723 423.604614,173.871063 423.795441,177.262604 
	C424.004120,180.971024 421.707153,183.461349 418.108154,183.514069 
	C403.836273,183.723068 389.558746,183.716171 375.285736,183.563751 
	C371.660004,183.525055 369.301392,181.118179 369.408783,177.447479 
	C369.515289,173.806686 371.836121,171.702469 375.595184,171.681747 
	C385.555328,171.626831 395.515839,171.647903 405.970032,171.638779 
z"/>
<path fill="#2E486D" opacity="1.000000" stroke="none" 
	d="
M402.617279,222.904083 
	C417.524323,222.807877 431.991730,222.795837 446.458923,222.727798 
	C450.575226,222.708450 453.459991,224.402206 453.457886,228.686707 
	C453.455780,232.960449 450.494629,234.746765 446.457855,234.754700 
	C432.654602,234.781845 418.851257,234.767151 405.047943,234.764542 
	C401.799316,234.763931 398.969757,233.832977 398.087402,230.361023 
	C397.182739,226.801392 398.569275,224.190384 402.617279,222.904083 
z"/>
<path fill="#2F496E" opacity="1.000000" stroke="none" 
	d="
M452.200195,357.306335 
	C450.806976,358.211639 449.655212,359.328918 448.490326,359.342712 
	C436.515106,359.484802 424.529663,359.668457 412.569641,359.228119 
	C410.739410,359.160706 408.157013,356.237640 407.542725,354.156982 
	C407.091217,352.627502 409.033936,350.108765 410.410248,348.445007 
	C411.067017,347.651031 412.886475,347.595367 414.181488,347.587952 
	C424.998474,347.525909 435.818085,347.424622 446.632477,347.603790 
	C452.650360,347.703461 454.543335,351.024384 452.200195,357.306335 
z"/>
<path fill="#2E486D" opacity="1.000000" stroke="none" 
	d="
M275.699005,287.640228 
	C283.441315,287.674316 286.148163,289.300140 286.121063,293.622498 
	C286.093903,297.953949 283.251709,299.683350 276.099579,299.688293 
	C266.643494,299.694824 257.187408,299.691864 247.731323,299.681885 
	C243.813492,299.677734 240.825760,298.249207 240.241638,294.009888 
	C239.736496,290.343658 242.691803,287.713165 247.366348,287.669708 
	C256.655762,287.583313 265.946503,287.641602 275.699005,287.640228 
z"/>
<path fill="#2F496D" opacity="1.000000" stroke="none" 
	d="
M350.014343,359.597992 
	C345.698212,359.584137 341.871521,359.711792 338.061523,359.515625 
	C334.453674,359.329803 332.032715,357.422852 332.010284,353.611206 
	C331.987915,349.815643 334.315094,347.709137 337.966583,347.661530 
	C348.758209,347.520691 359.553253,347.537415 370.345795,347.630310 
	C374.050659,347.662231 376.379730,349.774261 376.385345,353.514648 
	C376.391388,357.551758 373.808929,359.492798 369.940826,359.553040 
	C363.465576,359.653931 356.987762,359.591614 350.014343,359.597992 
z"/>
<path fill="#2E486D" opacity="1.000000" stroke="none" 
	d="
M431.073730,299.255127 
	C427.306122,297.802643 425.758484,294.887695 427.223206,291.998657 
	C428.238708,289.995605 431.238556,288.169006 433.573486,287.840759 
	C438.137024,287.199219 442.856781,287.603516 447.509888,287.685974 
	C451.034027,287.748383 453.224854,289.694397 453.456635,293.147095 
	C453.706879,296.874329 451.539154,299.316711 447.895447,299.488922 
	C442.435638,299.746979 436.949280,299.442871 431.073730,299.255127 
z"/>
<path fill="#2E486D" opacity="1.000000" stroke="none" 
	d="
M357.587524,226.626923 
	C358.936584,225.189499 360.071960,223.238159 361.308319,223.171967 
	C367.410919,222.845261 373.587952,222.600937 379.628387,223.291977 
	C381.242157,223.476608 383.674316,227.147491 383.534180,229.056641 
	C383.391602,230.999893 380.708710,234.090042 378.844055,234.322922 
	C373.310211,235.014008 367.583984,234.982300 362.026001,234.377838 
	C358.255859,233.967789 356.573090,230.943222 357.587524,226.626923 
z"/>
<path fill="#2F496E" opacity="1.000000" stroke="none" 
	d="
M300.076660,293.914246 
	C301.832733,287.794922 310.889832,285.171783 315.369873,289.090118 
	C318.076019,291.456909 317.930664,296.091187 315.081696,298.279297 
	C310.578583,301.737854 302.441711,299.578888 300.076660,293.914246 
z"/>
<path fill="#2F496E" opacity="1.000000" stroke="none" 
	d="
M396.268005,349.743835 
	C398.695129,353.715637 397.950745,356.813232 394.285706,358.864899 
	C390.703674,360.870056 384.160583,359.555237 382.391541,356.789642 
	C380.259094,353.455963 381.755585,348.526520 385.625793,348.099609 
	C388.999481,347.727509 392.548187,348.941833 396.268005,349.743835 
z"/>
<path fill="#2F496E" opacity="1.000000" stroke="none" 
	d="
M440.588135,172.532242 
	C443.536591,172.148132 446.217773,171.583466 448.777588,171.925888 
	C452.741547,172.456146 455.193909,177.244797 452.714478,180.183609 
	C451.089294,182.109970 447.748505,183.366241 445.133423,183.441498 
	C442.923187,183.505081 439.440704,181.931152 438.730408,180.183914 
	C437.939484,178.238373 439.646729,175.277237 440.588135,172.532242 
z"/>
<path fill="#30496E" opacity="1.000000" stroke="none" 
	d="
M371.234375,131.887909 
	C368.425690,128.219833 368.758606,125.077278 372.171814,122.591949 
	C374.831360,120.655411 381.381989,121.456245 383.336792,123.675926 
	C386.262665,126.998306 384.964172,132.268204 380.540436,133.086990 
	C377.687317,133.615051 374.533264,132.517059 371.234375,131.887909 
z"/>
<path fill="#49C060" opacity="1.000000" stroke="none" 
	d="
M279.960815,120.042839 
	C298.674683,116.544716 314.565277,122.318962 327.686371,135.515381 
	C343.163757,151.081573 347.122864,175.014084 338.168060,194.771835 
	C328.849487,215.332153 308.418579,227.969879 286.199829,226.868896 
	C284.380463,226.778732 282.575836,226.391083 280.141479,225.851807 
	C278.992157,225.388245 278.465729,225.214554 277.939301,225.040863 
	C277.939301,225.040863 278.002014,225.029068 277.821350,224.769028 
	C273.509979,220.927628 269.145935,217.579788 265.287811,213.725525 
	C245.887589,194.344772 243.209595,160.163422 260.084473,138.652969 
	C265.621094,131.595413 273.275085,126.198929 279.960815,120.042839 
M290.125061,171.625046 
	C285.393250,176.460114 280.661438,181.295181 274.955139,187.126007 
	C270.496613,182.183670 266.780365,177.693741 262.650452,173.623535 
	C260.129059,171.138580 256.817261,170.939835 254.156876,173.619476 
	C251.467377,176.328461 251.832855,179.410492 254.394348,182.041336 
	C259.845276,187.639771 265.389008,193.149063 270.956329,198.632324 
	C273.773468,201.406952 276.954041,201.667419 279.794647,198.850998 
	C294.316925,184.452576 308.774567,169.988602 323.187042,155.480225 
	C325.764465,152.885620 326.018951,149.745743 323.479553,146.998505 
	C320.880280,144.186462 317.860199,144.563583 315.026703,146.859116 
	C313.997253,147.693115 313.082886,148.672729 312.142273,149.612213 
	C304.966309,156.779572 297.796814,163.953445 290.125061,171.625046 
z"/>
<path fill="#59DD70" opacity="1.000000" stroke="none" 
	d="
M279.560608,120.024750 
	C273.275085,126.198929 265.621094,131.595413 260.084473,138.652969 
	C243.209595,160.163422 245.887589,194.344772 265.287811,213.725525 
	C269.145935,217.579788 273.509979,220.927628 277.813538,224.799957 
	C266.555389,224.133133 257.532806,218.261215 250.039749,210.249924 
	C235.537628,194.744797 231.086029,176.346146 237.741699,156.191193 
	C244.308762,136.304565 258.410034,124.120758 279.560608,120.024750 
z"/>
<path fill="#59DD70" opacity="1.000000" stroke="none" 
	d="
M278.069366,225.313721 
	C278.465729,225.214554 278.992157,225.388245 279.732788,225.741104 
	C279.364471,225.809036 278.781952,225.697800 278.069366,225.313721 
z"/>
<path fill="#294568" opacity="1.000000" stroke="none" 
	d="
M290.375183,171.375168 
	C297.796814,163.953445 304.966309,156.779572 312.142273,149.612213 
	C313.082886,148.672729 313.997253,147.693115 315.026703,146.859116 
	C317.860199,144.563583 320.880280,144.186462 323.479553,146.998505 
	C326.018951,149.745743 325.764465,152.885620 323.187042,155.480225 
	C308.774567,169.988602 294.316925,184.452576 279.794647,198.850998 
	C276.954041,201.667419 273.773468,201.406952 270.956329,198.632324 
	C265.389008,193.149063 259.845276,187.639771 254.394348,182.041336 
	C251.832855,179.410492 251.467377,176.328461 254.156876,173.619476 
	C256.817261,170.939835 260.129059,171.138580 262.650452,173.623535 
	C266.780365,177.693741 270.496613,182.183670 274.955139,187.126007 
	C280.661438,181.295181 285.393250,176.460114 290.375183,171.375168 
z"/>
</svg>